name rise30.6535peak61.5555fall82.9339.mot
datacolumns 19
datarows 20
range 3.76164500000000 3.79331400000000
endheader
time	ground_force1_vx	ground_force1_vy	ground_force1_vz	ground_force1_px	ground_force1_py	ground_force1_pz	ground_force2_vx	ground_force2_vy	ground_force2_vz	ground_force2_px	ground_force2_py	ground_force2_pz	ground_torque1_x	ground_torque1_y	ground_torque1_z	ground_torque2_x	ground_torque2_y	ground_torque2_z	
3.76164500000000	-49.70921100000000	811.52399800000001	51.48469600000000	0.10605900000000	0.00000000000000	0.11260000000000	-9.11796800000000	57.83979700000000	10.29451100000000	0.37299400000000	0.00000000000000	-0.06619100000000	0.00000000000000	21.03931300000000	0.00000000000000	0.00000000000000	6.84195900000000	0.00000000000000	
3.76332000000000	-50.16815400000000	809.67879500000004	51.40370900000000	0.10548200000000	0.00000000000000	0.11254700000000	-9.36607500000000	62.65567300000000	10.95601400000000	0.37606700000000	0.00000000000000	-0.06628500000000	0.00000000000000	21.01028300000000	0.00000000000000	0.00000000000000	7.37054500000000	0.00000000000000	
3.76498100000000	-50.63983300000000	807.71977200000003	51.30662200000000	0.10490600000000	0.00000000000000	0.11249100000000	-9.47753100000000	67.19252200000000	11.52662200000000	0.37887100000000	0.00000000000000	-0.06639000000000	0.00000000000000	20.98139200000000	0.00000000000000	0.00000000000000	7.84836800000000	0.00000000000000	
3.76664800000000	-51.12478500000000	805.64549599999998	51.19315500000000	0.10433000000000	0.00000000000000	0.11243300000000	-9.45937000000000	71.46501200000000	12.00893400000000	0.38142700000000	0.00000000000000	-0.06650800000000	0.00000000000000	20.95271900000000	0.00000000000000	0.00000000000000	8.27546200000000	0.00000000000000	
3.76831100000000	-51.62348800000000	803.45454400000006	51.06304100000000	0.10375400000000	0.00000000000000	0.11237200000000	-9.32260400000000	75.50561999999999	12.40914800000000	0.38375400000000	0.00000000000000	-0.06663700000000	0.00000000000000	20.92434000000000	0.00000000000000	0.00000000000000	8.65434000000000	0.00000000000000	
3.76998500000000	-52.13636000000000	801.14549899999997	50.91603100000000	0.10317500000000	0.00000000000000	0.11230900000000	-9.08085000000000	79.35963300000000	12.73599500000000	0.38586700000000	0.00000000000000	-0.06677900000000	0.00000000000000	20.89631800000000	0.00000000000000	0.00000000000000	8.98935300000000	0.00000000000000	
3.77165300000000	-52.66375000000000	798.71695099999999	50.75189200000000	0.10259300000000	0.00000000000000	0.11224400000000	-8.74898100000000	83.07997000000000	12.99965000000000	0.38778200000000	0.00000000000000	-0.06693200000000	0.00000000000000	20.86871100000000	0.00000000000000	0.00000000000000	9.28601100000000	0.00000000000000	
3.77332000000000	-53.20593400000000	796.16749300000004	50.57041000000000	0.10200700000000	0.00000000000000	0.11217600000000	-8.34189900000000	86.72227100000001	13.21071700000000	0.38951200000000	0.00000000000000	-0.06709700000000	0.00000000000000	20.84156700000000	0.00000000000000	0.00000000000000	9.55032800000000	0.00000000000000	
3.77498000000000	-53.76311300000000	793.49572699999999	50.37138700000000	0.10141700000000	0.00000000000000	0.11210600000000	-7.87352600000000	90.34059900000000	13.37935200000000	0.39106900000000	0.00000000000000	-0.06727300000000	0.00000000000000	20.81492400000000	0.00000000000000	0.00000000000000	9.78824100000000	0.00000000000000	
3.77665700000000	-54.33540400000000	790.70025899999996	50.15464300000000	0.10082000000000	0.00000000000000	0.11203300000000	-7.35602300000000	93.98399900000000	13.51457000000000	0.39246600000000	0.00000000000000	-0.06745900000000	0.00000000000000	20.78880900000000	0.00000000000000	0.00000000000000	10.00512900000000	0.00000000000000	
3.77832000000000	-54.92284100000000	787.77970400000004	49.92001800000000	0.10021600000000	0.00000000000000	0.11195800000000	-6.79929500000000	97.69400400000001	13.62375900000000	0.39371200000000	0.00000000000000	-0.06765600000000	0.00000000000000	20.76324000000000	0.00000000000000	0.00000000000000	10.20547500000000	0.00000000000000	
3.77997700000000	-55.52536500000000	784.73268199999995	49.66737000000000	0.09960400000000	0.00000000000000	0.11188100000000	-6.21073600000000	101.50314500000000	13.71239800000000	0.39481600000000	0.00000000000000	-0.06786300000000	0.00000000000000	20.73822300000000	0.00000000000000	0.00000000000000	10.39264300000000	0.00000000000000	
3.78165000000000	-56.14282600000000	781.55782599999998	49.39657700000000	0.09898400000000	0.00000000000000	0.11180200000000	-5.59521300000000	105.43436400000000	13.78397100000000	0.39578800000000	0.00000000000000	-0.06807900000000	0.00000000000000	20.71375200000000	0.00000000000000	0.00000000000000	10.56879300000000	0.00000000000000	
3.78331400000000	-56.77497400000000	778.25377800000001	49.10753600000000	0.09835400000000	0.00000000000000	0.11172100000000	-4.95523900000000	109.50124000000000	13.84004400000000	0.39663600000000	0.00000000000000	-0.06830400000000	0.00000000000000	20.68980900000000	0.00000000000000	0.00000000000000	10.73490300000000	0.00000000000000	
3.78497900000000	-57.42146300000000	774.81919600000003	48.80016500000000	0.09771400000000	0.00000000000000	0.11163700000000	-4.29128300000000	113.70883900000000	13.88046800000000	0.39736800000000	0.00000000000000	-0.06853800000000	0.00000000000000	20.66636300000000	0.00000000000000	0.00000000000000	10.89087100000000	0.00000000000000	
3.78664800000000	-58.08183800000000	771.25275199999999	48.47440300000000	0.09706200000000	0.00000000000000	0.11155200000000	-3.60218100000000	118.05503000000000	13.90367300000000	0.39799100000000	0.00000000000000	-0.06878000000000	0.00000000000000	20.64337000000000	0.00000000000000	0.00000000000000	11.03569500000000	0.00000000000000	
3.78831200000000	-58.75554400000000	767.55314199999998	48.13021000000000	0.09639900000000	0.00000000000000	0.11146400000000	-2.88558400000000	122.53205900000000	13.90701600000000	0.39851100000000	0.00000000000000	-0.06903000000000	0.00000000000000	20.62077300000000	0.00000000000000	0.00000000000000	11.16768100000000	0.00000000000000	
3.78998400000000	-59.44191500000000	763.71908199999996	47.76756600000000	0.09572300000000	0.00000000000000	0.11137400000000	-2.13841900000000	127.12824500000001	13.88713900000000	0.39893500000000	0.00000000000000	-0.06928800000000	0.00000000000000	20.59850100000000	0.00000000000000	0.00000000000000	11.28466700000000	0.00000000000000	
3.79165000000000	-60.14017600000000	759.74931600000002	47.38647700000000	0.09503400000000	0.00000000000000	0.11128300000000	-1.35731000000000	131.82961700000001	13.84032500000000	0.39926900000000	0.00000000000000	-0.06955100000000	0.00000000000000	20.57646900000000	0.00000000000000	0.00000000000000	11.38425100000000	0.00000000000000	
3.79331400000000	-60.84944400000000	755.64262299999996	46.98696900000000	0.09433100000000	0.00000000000000	0.11119000000000	-0.53894900000000	136.62141600000001	13.76280400000000	0.39951900000000	0.00000000000000	-0.06982100000000	0.00000000000000	20.55457800000000	0.00000000000000	0.00000000000000	11.46398700000000	0.00000000000000	
